<svg width="189" height="51" viewBox="0 0 189 51" fill="none" xmlns="http://www.w3.org/2000/svg">
<path d="M32.88 39.48C30.6933 39.48 28.6533 39.12 26.76 38.4C24.8933 37.68 23.2667 36.6667 21.88 35.36C20.52 34.0533 19.4533 32.52 18.68 30.76C17.9333 29 17.56 27.08 17.56 25C17.56 22.92 17.9333 21 18.68 19.24C19.4533 17.48 20.5333 15.9467 21.92 14.64C23.3067 13.3333 24.9333 12.32 26.8 11.6C28.6667 10.88 30.6933 10.52 32.88 10.52C35.0933 10.52 37.12 10.88 38.96 11.6C40.8267 12.32 42.44 13.3333 43.8 14.64C45.1867 15.92 46.2667 17.44 47.04 19.2C47.8133 20.96 48.2 22.8933 48.2 25C48.2 27.08 47.8133 29.0133 47.04 30.8C46.2667 32.56 45.1867 34.0933 43.8 35.4C42.44 36.68 40.8267 37.68 38.96 38.4C37.12 39.12 35.0933 39.48 32.88 39.48ZM42.04 45.44C40.9467 45.44 39.9067 45.32 38.92 45.08C37.96 44.84 37 44.4533 36.04 43.92C35.1067 43.3867 34.12 42.6667 33.08 41.76C32.0667 40.8533 30.96 39.7333 29.76 38.4L36.56 36.68C37.28 37.6667 37.9467 38.4533 38.56 39.04C39.1733 39.6267 39.76 40.04 40.32 40.28C40.9067 40.52 41.52 40.64 42.16 40.64C43.8667 40.64 45.3867 39.9467 46.72 38.56L49.6 42C47.7067 44.2933 45.1867 45.44 42.04 45.44ZM32.88 33.96C34.1333 33.96 35.28 33.7467 36.32 33.32C37.3867 32.8933 38.32 32.28 39.12 31.48C39.92 30.68 40.5333 29.7333 40.96 28.64C41.4133 27.52 41.64 26.3067 41.64 25C41.64 23.6667 41.4133 22.4533 40.96 21.36C40.5333 20.2667 39.92 19.32 39.12 18.52C38.32 17.72 37.3867 17.1067 36.32 16.68C35.28 16.2533 34.1333 16.04 32.88 16.04C31.6267 16.04 30.4667 16.2533 29.4 16.68C28.3333 17.1067 27.4 17.72 26.6 18.52C25.8267 19.32 25.2133 20.2667 24.76 21.36C24.3333 22.4533 24.12 23.6667 24.12 25C24.12 26.3067 24.3333 27.52 24.76 28.64C25.2133 29.7333 25.8267 30.68 26.6 31.48C27.4 32.28 28.3333 32.8933 29.4 33.32C30.4667 33.7467 31.6267 33.96 32.88 33.96ZM61.71 39.32C59.9233 39.32 58.3233 38.9733 56.91 38.28C55.5233 37.5867 54.4433 36.5333 53.67 35.12C52.8967 33.68 52.51 31.8533 52.51 29.64V17.48H58.75V28.72C58.75 30.5067 59.1233 31.8267 59.87 32.68C60.6433 33.5067 61.7233 33.92 63.11 33.92C64.07 33.92 64.9233 33.72 65.67 33.32C66.4167 32.8933 67.0033 32.2533 67.43 31.4C67.8567 30.52 68.07 29.4267 68.07 28.12V17.48H74.31V39H68.39V33.08L69.47 34.8C68.75 36.2933 67.6833 37.4267 66.27 38.2C64.8833 38.9467 63.3633 39.32 61.71 39.32ZM90.3309 39.32C88.0376 39.32 85.9976 38.84 84.2109 37.88C82.4509 36.92 81.0509 35.6133 80.0109 33.96C78.9976 32.28 78.4909 30.3733 78.4909 28.24C78.4909 26.08 78.9976 24.1733 80.0109 22.52C81.0509 20.84 82.4509 19.5333 84.2109 18.6C85.9976 17.64 88.0376 17.16 90.3309 17.16C92.5976 17.16 94.6243 17.64 96.4109 18.6C98.1976 19.5333 99.5976 20.8267 100.611 22.48C101.624 24.1333 102.131 26.0533 102.131 28.24C102.131 30.3733 101.624 32.28 100.611 33.96C99.5976 35.6133 98.1976 36.92 96.4109 37.88C94.6243 38.84 92.5976 39.32 90.3309 39.32ZM90.3309 34.2C91.3709 34.2 92.3043 33.96 93.1309 33.48C93.9576 33 94.6109 32.32 95.0909 31.44C95.5709 30.5333 95.8109 29.4667 95.8109 28.24C95.8109 26.9867 95.5709 25.92 95.0909 25.04C94.6109 24.16 93.9576 23.48 93.1309 23C92.3043 22.52 91.3709 22.28 90.3309 22.28C89.2909 22.28 88.3576 22.52 87.5309 23C86.7043 23.48 86.0376 24.16 85.5309 25.04C85.0509 25.92 84.8109 26.9867 84.8109 28.24C84.8109 29.4667 85.0509 30.5333 85.5309 31.44C86.0376 32.32 86.7043 33 87.5309 33.48C88.3576 33.96 89.2909 34.2 90.3309 34.2ZM115.102 39.32C112.569 39.32 110.595 38.68 109.182 37.4C107.769 36.0933 107.062 34.16 107.062 31.6V12.72H113.302V31.52C113.302 32.4267 113.542 33.1333 114.022 33.64C114.502 34.12 115.155 34.36 115.982 34.36C116.969 34.36 117.809 34.0933 118.502 33.56L120.182 37.96C119.542 38.4133 118.769 38.76 117.862 39C116.982 39.2133 116.062 39.32 115.102 39.32ZM103.742 22.76V17.96H118.662V22.76H103.742ZM123.685 39V17.48H129.925V39H123.685ZM126.805 14.48C125.658 14.48 124.725 14.1467 124.005 13.48C123.285 12.8133 122.925 11.9867 122.925 11C122.925 10.0133 123.285 9.18667 124.005 8.52C124.725 7.85333 125.658 7.52 126.805 7.52C127.951 7.52 128.885 7.84 129.605 8.48C130.325 9.09333 130.685 9.89333 130.685 10.88C130.685 11.92 130.325 12.7867 129.605 13.48C128.911 14.1467 127.978 14.48 126.805 14.48ZM136.476 39V17C136.476 14.5733 137.196 12.64 138.636 11.2C140.076 9.73333 142.129 9 144.796 9C145.703 9 146.569 9.09333 147.396 9.28C148.249 9.46666 148.969 9.76 149.556 10.16L147.916 14.68C147.569 14.44 147.183 14.2533 146.756 14.12C146.329 13.9867 145.876 13.92 145.396 13.92C144.489 13.92 143.783 14.1867 143.276 14.72C142.796 15.2267 142.556 16 142.556 17.04V19.04L142.716 21.72V39H136.476ZM133.156 22.76V17.96H148.076V22.76H133.156ZM154.295 47.08C153.175 47.08 152.069 46.9067 150.975 46.56C149.882 46.2133 148.989 45.7333 148.295 45.12L150.575 40.68C151.055 41.1067 151.602 41.44 152.215 41.68C152.855 41.92 153.482 42.04 154.095 42.04C154.975 42.04 155.669 41.8267 156.175 41.4C156.709 41 157.189 40.32 157.615 39.36L158.735 36.72L159.215 36.04L166.935 17.48H172.935L163.215 40.32C162.522 42.0533 161.722 43.4133 160.815 44.4C159.935 45.3867 158.949 46.08 157.855 46.48C156.789 46.88 155.602 47.08 154.295 47.08ZM157.975 39.84L148.375 17.48H154.815L162.255 35.48L157.975 39.84Z" fill="#0F172A"/>
<path d="M180.25 39.5V45C180.249 45.7954 179.933 46.558 179.37 47.1204C178.808 47.6828 178.045 47.9992 177.25 48C177.117 48 176.99 47.9473 176.896 47.8536C176.803 47.7598 176.75 47.6326 176.75 47.5C176.75 47.3674 176.803 47.2402 176.896 47.1464C176.99 47.0527 177.117 47 177.25 47C177.78 47 178.289 46.7893 178.664 46.4142C179.039 46.0391 179.25 45.5304 179.25 45V44.5H175.5C175.235 44.5 174.98 44.3946 174.793 44.2071C174.605 44.0196 174.5 43.7652 174.5 43.5V39.5C174.5 39.2348 174.605 38.9804 174.793 38.7929C174.98 38.6054 175.235 38.5 175.5 38.5H179.25C179.515 38.5 179.77 38.6054 179.957 38.7929C180.145 38.9804 180.25 39.2348 180.25 39.5ZM186.5 38.5H182.75C182.485 38.5 182.23 38.6054 182.043 38.7929C181.855 38.9804 181.75 39.2348 181.75 39.5V43.5C181.75 43.7652 181.855 44.0196 182.043 44.2071C182.23 44.3946 182.485 44.5 182.75 44.5H186.5V45C186.5 45.5304 186.289 46.0391 185.914 46.4142C185.539 46.7893 185.03 47 184.5 47C184.367 47 184.24 47.0527 184.146 47.1464C184.053 47.2402 184 47.3674 184 47.5C184 47.6326 184.053 47.7598 184.146 47.8536C184.24 47.9473 184.367 48 184.5 48C185.295 47.9992 186.058 47.6828 186.62 47.1204C187.183 46.558 187.499 45.7954 187.5 45V39.5C187.5 39.2348 187.395 38.9804 187.207 38.7929C187.02 38.6054 186.765 38.5 186.5 38.5Z" fill="#D97706"/>
<path d="M8.75 4.5V10C8.75083 10.7954 9.06716 11.558 9.62959 12.1204C10.192 12.6828 10.9546 12.9992 11.75 13C11.8826 13 12.0098 12.9473 12.1036 12.8536C12.1973 12.7598 12.25 12.6326 12.25 12.5C12.25 12.3674 12.1973 12.2402 12.1036 12.1464C12.0098 12.0527 11.8826 12 11.75 12C11.2196 12 10.7109 11.7893 10.3358 11.4142C9.96071 11.0391 9.75 10.5304 9.75 10V9.5H13.5C13.7652 9.5 14.0196 9.39464 14.2071 9.20711C14.3946 9.01957 14.5 8.76522 14.5 8.5V4.5C14.5 4.23478 14.3946 3.98043 14.2071 3.79289C14.0196 3.60536 13.7652 3.5 13.5 3.5H9.75C9.48478 3.5 9.23043 3.60536 9.04289 3.79289C8.85536 3.98043 8.75 4.23478 8.75 4.5ZM2.5 3.5H6.25C6.51522 3.5 6.76957 3.60536 6.95711 3.79289C7.14464 3.98043 7.25 4.23478 7.25 4.5V8.5C7.25 8.76522 7.14464 9.01957 6.95711 9.20711C6.76957 9.39464 6.51522 9.5 6.25 9.5H2.5V10C2.5 10.5304 2.71071 11.0391 3.08579 11.4142C3.46086 11.7893 3.96957 12 4.5 12C4.63261 12 4.75979 12.0527 4.85355 12.1464C4.94732 12.2402 5 12.3674 5 12.5C5 12.6326 4.94732 12.7598 4.85355 12.8536C4.75979 12.9473 4.63261 13 4.5 13C3.7046 12.9992 2.94202 12.6828 2.37959 12.1204C1.81716 11.558 1.50083 10.7954 1.5 10V4.5C1.5 4.23478 1.60536 3.98043 1.79289 3.79289C1.98043 3.60536 2.23478 3.5 2.5 3.5Z" fill="#D97706"/>
</svg>
